<svg xmlns="http://www.w3.org/2000/svg" xmlns:xlink="http://www.w3.org/1999/xlink" xmlns:cc="http://creativecommons.org/ns#" xmlns:dc="http://purl.org/dc/elements/1.1/" xmlns:inkscape="http://www.inkscape.org/namespaces/inkscape" xmlns:rdf="http://www.w3.org/1999/02/22-rdf-syntax-ns#" xmlns:sodipodi="http://sodipodi.sourceforge.net/DTD/sodipodi-0.dtd" xmlns:svg="http://www.w3.org/2000/svg"><symbol id="icon-left-arrow">
  <path d="M90.000,9.000 L12.000,9.000 C11.448,9.000 11.000,8.552 11.000,8.000 C11.000,7.447 11.448,7.000 12.000,7.000 L90.000,7.000 C90.552,7.000 91.000,7.447 91.000,8.000 C91.000,8.552 90.552,9.000 90.000,9.000 ZM2.904,7.646 L8.060,12.802 C8.451,13.193 8.451,13.826 8.060,14.217 C7.670,14.607 7.037,14.607 6.646,14.217 L0.989,8.560 C0.599,8.169 0.599,7.536 0.989,7.146 C0.989,7.146 0.989,7.146 0.989,7.146 C0.989,6.890 1.087,6.634 1.282,6.438 L6.939,0.781 C7.330,0.391 7.963,0.391 8.353,0.781 C8.744,1.173 8.744,1.805 8.353,2.196 L2.904,7.646 Z"/>
</symbol><symbol id="icon-letter" viewBox="0 0 100 125">
<path class="st0" fill="#7f38bd" d="M5.1,15.5c-2,2.1-3.1,4.8-3.1,7.7v53.5c0,2.9,1.1,5.6,3.1,7.7l0,0c2.1,2.2,5,3.4,8,3.4h73.8
	c6.1,0,11.1-5,11.1-11.1c0,0,0,0,0,0V23.2c0-6.1-5-11.1-11.1-11.1H13.1C10.1,12.1,7.2,13.4,5.1,15.5z M16.9,27.4
	c1.3-1.4,3.4-1.5,4.9-0.3L50,51.9l0,0l28.2-24.7c1.5-1.3,3.7-1.1,4.9,0.3c1.2,1.4,1.1,3.4-0.1,4.7L66.3,49.2l16.8,18.8
	c1.3,1.5,1.1,3.7-0.3,4.9c-1.4,1.2-3.4,1.1-4.7-0.1L60.4,55.3l-4.8,4.9c-1.5,1.4-3.5,2.2-5.6,2.2l0,0c-2.1,0-4.1-0.8-5.6-2.2
	l-4.8-4.9L21.9,72.7c-1.4,1.3-3.6,1.3-4.9,0c-1.3-1.3-1.3-3.4-0.1-4.7l16.8-18.7L17,32.2C15.7,30.9,15.7,28.8,16.9,27.4z"/>
</symbol><symbol id="icon-marker" viewBox="0 0 1000 1000">
<metadata> Svg Vector Icons : http://www.onlinewebfonts.com/icon </metadata>
<g><g transform="translate(0.000000,512.000000) scale(0.100000,-0.100000)"><path fill="#7f38bd" d="M4657.2,5000.1c-727.9-82.4-1388.8-390.8-1907.9-885c-523-500-842.9-1090-977-1804.5c-55.6-291.2-49.8-921.4,9.6-1197.3c84.3-396.5,153.3-557.4,701.1-1647.4C4205.1-3957.3,4494.3-4518.5,4571-4599c233.7-241.4,628.3-241.4,860.1,0c74.7,76.6,394.6,697.3,2147.4,4179.8c488.5,969.3,559.4,1139.8,643.6,1532.5c38.3,172.4,44.1,260.5,44.1,613c1.9,467.4-28.7,676.2-155.2,1051.7C7628.3,4228.1,6160.9,5170.6,4657.2,5000.1z M5480.9,3222.4c235.6-80.5,409.9-183.9,588.1-354.4c212.6-201.1,344.8-408,425.3-668.5c258.6-841-228-1726-1084.2-1971.2c-214.6-61.3-601.5-61.3-816,0c-570.9,162.8-1001.9,624.5-1126.4,1201.1c-38.3,176.2-28.7,507.6,19.2,689.6c155.2,584.3,601.5,1013.4,1199.2,1151.3c76.6,17.2,199.2,24.9,364,19.2C5270.2,3283.7,5320,3276.1,5480.9,3222.4z"/></g></g>
</symbol><symbol id="icon-phone" viewBox="0 0 100 110">
<path class="st0" fill="#7f38bd" d="M33.7,76.2c16.4,16.4,29,20.5,43.8,5.7c2.3-2.4,4.5-5.4,1.4-8.5l-12-9.2c-3.8-2-5.3-0.6-7.1,1.4
	c-6.6,7.3-13.6,4.9-18.4,0l-7.1-7.1c-4.9-4.7-7.3-11.8,0-18.4c2-1.8,3.5-3.3,1.4-7.1l-9.2-12c-3.1-3.1-6.1-0.9-8.5,1.4
	C3.3,37.3,7.4,49.9,23.8,66.3L33.7,76.2z"/>
</symbol><symbol id="icon-right-arrow">
  <path d="M90.731,7.352 C90.731,7.352 90.731,7.352 90.731,7.352 C90.731,7.609 90.634,7.865 90.440,8.060 L84.822,13.717 C84.434,14.107 83.805,14.107 83.417,13.717 C83.029,13.326 83.029,12.693 83.417,12.302 L88.830,6.853 L83.708,1.696 C83.320,1.305 83.320,0.672 83.708,0.281 C84.096,-0.109 84.725,-0.109 85.113,0.281 L90.731,5.939 C91.119,6.329 91.119,6.962 90.731,7.352 ZM79.000,7.500 L1.000,7.500 C0.448,7.500 0.000,7.052 0.000,6.500 C0.000,5.947 0.448,5.500 1.000,5.500 L79.000,5.500 C79.552,5.500 80.000,5.947 80.000,6.500 C80.000,7.052 79.552,7.500 79.000,7.500 Z"/>
</symbol></svg>